<svg width="16" height="16" viewBox="0 0 16 16" xmlns="http://www.w3.org/2000/svg">
<g id="carbon-for-ibm-product-carbon">
<path id="Vector" fill-rule="evenodd" clip-rule="evenodd" d="M8.9565 3.146C8.696 3.3635 8.3655 3.5 8 3.5C7.173 3.5 6.5 2.827 6.5 2C6.5 1.173 7.173 0.5 8 0.5C8.827 0.5 9.5 1.173 9.5 2C9.5 2.099 9.489 2.195 9.471 2.2885L13.7545 4.8195C13.9065 4.9095 14 5.073 14 5.25V9H13V5.5355L8.9565 3.146ZM8.5 2C8.5 1.724 8.2755 1.5 8 1.5C7.7245 1.5 7.5 1.724 7.5 2C7.5 2.276 7.7245 2.5 8 2.5C8.2755 2.5 8.5 2.276 8.5 2ZM3 5.5348V10.0918C3.5805 10.2988 4 10.8488 4 11.4998C4 12.3268 3.327 12.9998 2.5 12.9998C1.673 12.9998 1 12.3268 1 11.4998C1 10.8488 1.4195 10.2988 2 10.0918V5.2498C2 5.0728 2.0935 4.9093 2.2455 4.8193L5.5915 2.8418L6.1 3.7028L3 5.5348ZM2 11.4998C2 11.7758 2.2245 11.9998 2.5 11.9998C2.7755 11.9998 3 11.7758 3 11.4998C3 11.2238 2.7755 10.9998 2.5 10.9998C2.2245 10.9998 2 11.2238 2 11.4998ZM8.2545 4.5695L11.2545 6.3445C11.4065 6.4345 11.5 6.598 11.5 6.775V10.225C11.5 10.402 11.4065 10.5655 11.2545 10.655L8.2545 12.43C8.176 12.477 8.088 12.5 8 12.5C7.912 12.5 7.824 12.477 7.7455 12.43L4.7455 10.655C4.5935 10.5655 4.5 10.402 4.5 10.225V6.775C4.5 6.598 4.5935 6.4345 4.7455 6.345L7.7455 4.57C7.824 4.523 7.912 4.5 8 4.5C8.088 4.5 8.176 4.523 8.2545 4.5695ZM8 11.419L10.5 9.94V7.06L8 5.581L5.5 7.06V9.94L8 11.419ZM13.5 10C12.673 10 12 10.673 12 11.5C12 11.6765 12.036 11.8435 12.0925 12.001L8 14.419L4.798 12.527L4.2895 13.388L7.7455 15.43C7.824 15.477 7.912 15.5 8 15.5C8.088 15.5 8.176 15.477 8.2545 15.4305L12.7345 12.783C12.9595 12.9175 13.2195 13 13.5 13C14.327 13 15 12.327 15 11.5C15 10.673 14.327 10 13.5 10ZM13.5 12C13.2245 12 13 11.776 13 11.5C13 11.224 13.2245 11 13.5 11C13.7755 11 14 11.224 14 11.5C14 11.776 13.7755 12 13.5 12Z" />
</g>
</svg>
