<svg width="16" height="16" viewBox="0 0 16 16" xmlns="http://www.w3.org/2000/svg">
<path fill-rule="evenodd" clip-rule="evenodd" d="M12.9437 3.05631C14.2553 4.36789 14.9946 6.14521 15 8.00005C15.0082 8.16828 14.9913 8.33678 14.95 8.50005H6C6.04509 10.4557 6.63374 12.3601 7.7 14.0001C8.58989 14.0547 9.48024 13.9006 10.3 13.5501L10.6 14.5001C9.77535 14.8385 8.89134 15.0085 8 15.0001C7.08072 15.0002 6.17041 14.8192 5.32108 14.4674C4.47175 14.1157 3.70004 13.6001 3.05 12.9501C2.39997 12.3 1.88436 11.5283 1.53262 10.679C1.18087 9.82964 0.999889 8.91934 1 8.00005C0.999929 6.76968 1.32786 5.56154 1.95 4.50005L2.7 5.15005C2.29514 5.87172 2.05602 6.67448 2 7.50005H5C5.06273 5.67268 5.52345 3.88101 6.35 2.25005C5.94141 2.3953 5.54084 2.5622 5.15 2.75005L4.6 1.90005C5.62952 1.29433 6.80563 0.983007 8 1.00005C9.85484 1.00549 11.6322 1.74473 12.9437 3.05631ZM3.75 12.2501C4.49713 12.9706 5.40573 13.502 6.4 13.8001C5.54696 12.1587 5.0688 10.3485 5 8.50005H2C2.14079 9.91245 2.75794 11.2349 3.75 12.2501ZM7.65 2.00005C6.61023 3.6493 6.03977 5.55081 6 7.50005H10C9.96023 5.55081 9.38977 3.6493 8.35 2.00005H7.65ZM9.6 2.20005C10.482 3.83006 10.962 5.64712 11 7.50005H13.95C13.8468 6.28008 13.3757 5.12017 12.599 4.17378C11.8222 3.2274 10.7764 2.53914 9.6 2.20005ZM4.5 3.5C4.5 4.05228 4.05228 4.5 3.5 4.5C2.94772 4.5 2.5 4.05228 2.5 3.5C2.5 2.94772 2.94772 2.5 3.5 2.5C4.05228 2.5 4.5 2.94772 4.5 3.5ZM11.5 10.5C11.5 11.0523 11.0523 11.5 10.5 11.5C9.94771 11.5 9.5 11.0523 9.5 10.5C9.5 9.94771 9.94771 9.5 10.5 9.5C11.0523 9.5 11.5 9.94771 11.5 10.5ZM13.5 15.5C13.1044 15.5 12.7178 15.3827 12.3889 15.1629C12.06 14.9432 11.8036 14.6308 11.6522 14.2654C11.5009 13.8999 11.4613 13.4978 11.5384 13.1098C11.6156 12.7219 11.8061 12.3655 12.0858 12.0858C12.3655 11.8061 12.7219 11.6156 13.1098 11.5384C13.4978 11.4613 13.8999 11.5009 14.2654 11.6522C14.6308 11.8036 14.9432 12.06 15.1629 12.3889C15.3827 12.7178 15.5 13.1044 15.5 13.5C15.4984 14.03 15.2872 14.5378 14.9125 14.9125C14.5378 15.2872 14.03 15.4984 13.5 15.5ZM13.5 12.5C13.3022 12.5 13.1089 12.5587 12.9444 12.6685C12.78 12.7784 12.6518 12.9346 12.5761 13.1173C12.5004 13.3 12.4806 13.5011 12.5192 13.6951C12.5578 13.8891 12.653 14.0673 12.7929 14.2071C12.9327 14.347 13.1109 14.4422 13.3049 14.4808C13.4989 14.5194 13.7 14.4996 13.8827 14.4239C14.0654 14.3482 14.2216 14.22 14.3315 14.0556C14.4414 13.8911 14.5 13.6978 14.5 13.5C14.4992 13.235 14.3936 12.9811 14.2062 12.7938C14.0189 12.6064 13.765 12.5008 13.5 12.5Z"/>
</svg>
