<svg width="16" height="16" viewBox="0 0 16 16" xmlns="http://www.w3.org/2000/svg">
<path fill-rule="evenodd" clip-rule="evenodd" d="M3.91719 2.04614H12.0828C12.2473 2.04654 12.41 2.07932 12.5618 2.14262C12.7136 2.20592 12.8514 2.29849 12.9674 2.41506C13.0834 2.53163 13.1753 2.66991 13.2379 2.82199C13.3005 2.97408 13.3324 3.137 13.332 3.30146V14.2336L12.0219 13.0758L11.2845 12.3933L10.5045 11.6682L10.8275 12.7955H3.91719C3.75274 12.7951 3.58998 12.7623 3.43819 12.699C3.28641 12.6357 3.14859 12.5432 3.03258 12.4266C2.91658 12.31 2.82468 12.1718 2.76212 12.0197C2.69956 11.8676 2.66757 11.7047 2.66797 11.5402V3.30146C2.66757 3.137 2.69956 2.97408 2.76212 2.82199C2.82468 2.66991 2.91658 2.53163 3.03258 2.41506C3.14859 2.29849 3.28641 2.20592 3.43819 2.14262C3.58998 2.07932 3.75274 2.04654 3.91719 2.04614ZM9.32844 9.51099C9.51125 9.74255 9.73063 10.0046 9.73063 10.0046C10.0934 10.0137 10.4529 9.93416 10.7779 9.77273C11.1028 9.6113 11.3835 9.37292 11.5953 9.07833C11.5755 7.84295 11.2755 6.62819 10.7178 5.52567C10.2271 5.14024 9.62874 4.91666 9.00547 4.88583L8.92016 4.98333C9.47502 5.13098 9.99221 5.39477 10.4375 5.75724C9.8701 5.44448 9.24699 5.24575 8.60329 5.17224C8.19396 5.12713 7.7807 5.13122 7.37235 5.18442C7.33753 5.18547 7.30287 5.18955 7.26875 5.19661C6.79033 5.25101 6.3235 5.38057 5.88547 5.58052C5.66 5.68411 5.52594 5.75724 5.52594 5.75724C5.99502 5.37663 6.54222 5.10407 7.1286 4.95896L7.06766 4.88583C6.4444 4.91666 5.84608 5.14024 5.35532 5.52567C4.79764 6.62819 4.4976 7.84295 4.47782 9.07833C4.68799 9.37321 4.96742 9.61191 5.29151 9.77342C5.6156 9.93494 5.97443 10.0143 6.33641 10.0046C6.33641 10.0046 6.56188 9.73036 6.74469 9.4988C6.31627 9.39074 5.93907 9.1364 5.67828 8.77974C5.67828 8.77974 5.73922 8.82239 5.84891 8.88333C5.85586 8.89085 5.86412 8.89705 5.87329 8.90161C5.88243 8.90771 5.89157 8.91228 5.90071 8.91685C5.90985 8.92142 5.91899 8.92599 5.92813 8.93208C6.07148 9.01126 6.22012 9.08049 6.37297 9.13927C6.66296 9.25373 6.9628 9.34143 7.26875 9.4013C7.7899 9.50141 8.32514 9.50348 8.84703 9.40739C9.15066 9.35429 9.44714 9.26637 9.73063 9.14536C9.97705 9.05237 10.2121 8.93176 10.4314 8.78583C10.1608 9.15012 9.77015 9.40699 9.32844 9.51099ZM6.50532 7.24448C6.62429 7.17713 6.76082 7.14727 6.89704 7.15881C6.98228 7.16236 7.06598 7.18269 7.14336 7.21861C7.22074 7.25454 7.29028 7.30537 7.34801 7.36819C7.40574 7.43101 7.45051 7.50459 7.47978 7.58472C7.50906 7.66486 7.52224 7.74998 7.5186 7.83522C7.5186 7.97192 7.47733 8.10544 7.40019 8.21831C7.32304 8.33117 7.21362 8.41811 7.08624 8.46774C6.95887 8.51738 6.81947 8.52741 6.68631 8.49651C6.55314 8.4656 6.4324 8.39522 6.3399 8.29455C6.2474 8.19389 6.18745 8.06765 6.16789 7.93235C6.14834 7.79705 6.17008 7.659 6.23029 7.53626C6.2905 7.41353 6.38636 7.31183 6.50532 7.24448ZM8.72954 7.24448C8.84851 7.17713 8.98504 7.14727 9.12125 7.15881C9.20649 7.16236 9.2902 7.18269 9.36758 7.21861C9.44496 7.25454 9.5145 7.30537 9.57223 7.36819C9.62996 7.43101 9.67473 7.50459 9.704 7.58472C9.73327 7.66486 9.74646 7.74998 9.74282 7.83522C9.74282 7.97192 9.70155 8.10544 9.6244 8.21831C9.54726 8.33117 9.43784 8.41811 9.31046 8.46774C9.18309 8.51738 9.04369 8.52741 8.91052 8.49651C8.77736 8.4656 8.65662 8.39522 8.56412 8.29455C8.47162 8.19389 8.41167 8.06765 8.39211 7.93235C8.37255 7.79705 8.3943 7.659 8.45451 7.53626C8.51472 7.41353 8.61058 7.31183 8.72954 7.24448Z" />
</svg>
