<svg width="16" height="16" viewBox="0 0 16 16" xmlns="http://www.w3.org/2000/svg">
<path fill-rule="evenodd" clip-rule="evenodd" d="M8.00011 1.10868C6.44212 1.10889 4.93502 1.66339 3.7484 2.67299C2.56179 3.68259 1.77308 5.08143 1.52334 6.61928C1.27361 8.15712 1.57916 9.73366 2.38532 11.0669C3.19149 12.4001 4.44568 13.403 5.92355 13.8962C6.25167 13.9571 6.3923 13.7556 6.3923 13.5821C6.3923 13.4087 6.3923 13.0149 6.3923 12.4665C4.56886 12.8602 4.18448 11.5852 4.18448 11.5852C4.05626 11.1834 3.78638 10.8419 3.42511 10.6243C2.8298 10.2212 3.47198 10.2259 3.47198 10.2259C3.67992 10.2552 3.8784 10.3318 4.05225 10.4496C4.22611 10.5674 4.37074 10.7233 4.47511 10.9056C4.65668 11.2312 4.96014 11.4714 5.31878 11.5734C5.67742 11.6754 6.06187 11.6307 6.38761 11.4493C6.41407 11.1167 6.5607 10.8051 6.80011 10.5727C5.34698 10.404 3.81417 9.8415 3.81417 7.329C3.80354 6.67645 4.04537 6.04501 4.48917 5.56649C4.28829 5.00127 4.31178 4.38054 4.5548 3.83212C4.5548 3.83212 5.10323 3.65399 6.35948 4.50243C7.43361 4.20944 8.5666 4.20944 9.64073 4.50243C10.8923 3.65399 11.4407 3.83212 11.4407 3.83212C11.6837 4.38054 11.7072 5.00127 11.5064 5.56649C11.9502 6.04501 12.192 6.67645 12.1814 7.329C12.1814 9.85087 10.6485 10.404 9.18605 10.5681C9.34271 10.7269 9.46352 10.9174 9.54034 11.1268C9.61715 11.3362 9.64819 11.5597 9.63136 11.7821C9.63136 12.6587 9.63136 13.3665 9.63136 13.5821C9.63136 13.7977 9.74854 13.9618 10.1001 13.8962C11.5799 13.4024 12.8354 12.3975 13.6414 11.0619C14.4475 9.7262 14.7513 8.14708 14.4985 6.60768C14.2457 5.06827 13.4528 3.66927 12.2619 2.66154C11.071 1.65382 9.56013 1.10329 8.00011 1.10868Z" />
</svg>
