<svg width="14" height="14" viewBox="0 0 14 14" xmlns="http://www.w3.org/2000/svg">
<path d="M6.92187 1.25575C6.84791 1.19803 6.75679 1.16669 6.66298 1.16669C6.56916 1.16669 6.47804 1.19803 6.40408 1.25575L0.416748 5.92475L0.93454 6.57962L1.66675 6.0087V11.1667C1.6672 11.3875 1.75514 11.5992 1.91132 11.7554C2.06751 11.9116 2.27921 11.9995 2.50008 12H10.8334C11.0543 11.9996 11.266 11.9117 11.4222 11.7555C11.5784 11.5993 11.6663 11.3875 11.6667 11.1667V6.0125L12.399 6.58333L12.9167 5.92841L6.92187 1.25575ZM7.50008 11.1667H5.83342V7.83333H7.50008V11.1667ZM8.33342 11.1667V7.83333C8.33316 7.61239 8.24528 7.40058 8.08906 7.24435C7.93283 7.08813 7.72102 7.00025 7.50008 7H5.83342C5.61247 7.00022 5.40064 7.08808 5.2444 7.24432C5.08817 7.40055 5.0003 7.61238 5.00008 7.83333V11.1667H2.50008V5.35895L6.66675 2.11312L10.8334 5.36333V11.1667H8.33342Z" />
</svg>
