<svg width="24" height="24" viewBox="0 0 24 24" stroke="none" xmlns="http://www.w3.org/2000/svg">
<g >
<path id="Vector" fill-rule="evenodd" clip-rule="evenodd" d="M20.4757 4.09062C21.0227 4.31774 21.5195 4.65061 21.9376 5.07013C22.7823 5.91189 23.2583 7.05452 23.2611 8.24703C23.2639 9.43953 22.7933 10.5844 21.9526 11.4301L15.9526 17.4301C15.5324 17.8508 15.0331 18.184 14.4834 18.4106C13.9337 18.6372 13.3446 18.7526 12.7501 18.7501C11.5576 18.757 10.4112 18.2904 9.56256 17.4526C9.14304 17.0346 8.81018 16.5378 8.58305 15.9908C8.35593 15.4438 8.23901 14.8574 8.23901 14.2651C8.23901 13.6729 8.35593 13.0864 8.58305 12.5394C8.81018 11.9925 9.14304 11.4957 9.56256 11.0776L10.6276 10.0126L11.6851 11.0776L10.6276 12.1426C10.0646 12.7065 9.74879 13.471 9.74949 14.2678C9.7502 15.0646 10.0674 15.8285 10.6313 16.3914C11.1952 16.9543 11.9597 17.2702 12.7565 17.2694C13.5533 17.2687 14.3171 16.9515 14.8801 16.3876L20.8801 10.3876C21.1593 10.1084 21.3808 9.77692 21.5319 9.4121C21.683 9.04728 21.7608 8.65626 21.7608 8.26138C21.7608 7.8665 21.683 7.47548 21.5319 7.11066C21.3808 6.74584 21.1593 6.41435 20.8801 6.13513C20.6008 5.85591 20.2694 5.63442 19.9045 5.4833C19.5397 5.33219 19.1487 5.25441 18.7538 5.25441C18.3589 5.25441 17.9679 5.33219 17.6031 5.4833C17.2383 5.63442 16.9068 5.85591 16.6276 6.13513L15.5626 5.07013C15.9806 4.65061 16.4774 4.31774 17.0244 4.09062C17.5714 3.8635 18.1578 3.74658 18.7501 3.74658C19.3423 3.74658 19.9288 3.8635 20.4757 4.09062ZM2.48856 17.6401C2.64019 18.005 2.86242 18.3364 3.14248 18.6151C3.42123 18.8952 3.75257 19.1174 4.11745 19.269C4.48234 19.4207 4.87359 19.4987 5.26873 19.4987C5.66387 19.4987 6.05512 19.4207 6.42 19.269C6.78489 19.1174 7.11622 18.8952 7.39498 18.6151L8.45998 19.6801C7.60627 20.5267 6.4523 21.0013 5.24998 21.0001C4.05815 21.015 2.90909 20.5565 2.05498 19.7251C1.63433 19.3069 1.30051 18.8097 1.07272 18.262C0.844929 17.7143 0.727661 17.127 0.727661 16.5339C0.727661 15.9407 0.844929 15.3534 1.07272 14.8057C1.30051 14.258 1.63433 13.7608 2.05498 13.3426L8.05498 7.34261C8.90135 6.49624 10.0493 6.02075 11.2462 6.02075C12.4432 6.02075 13.5911 6.49624 14.4375 7.34261C15.2838 8.18898 15.7593 9.33691 15.7593 10.5339C15.7593 11.7308 15.2838 12.8787 14.4375 13.7251L12.8475 15.3151L11.7825 14.2501L13.3725 12.6376C13.6528 12.357 13.8746 12.0236 14.0253 11.6567C14.1759 11.2898 14.2523 10.8967 14.25 10.5001C14.2577 10.1047 14.1861 9.71184 14.0392 9.34467C13.8923 8.97751 13.6733 8.64356 13.395 8.36261C13.1162 8.08256 12.7849 7.86033 12.42 7.70869C12.0551 7.55705 11.6639 7.47899 11.2687 7.47899C10.8736 7.47899 10.4823 7.55705 10.1175 7.70869C9.75257 7.86033 9.42123 8.08256 9.14248 8.36261L3.14248 14.3626C2.86242 14.6414 2.64019 14.9727 2.48856 15.3376C2.33692 15.7025 2.25886 16.0937 2.25886 16.4889C2.25886 16.884 2.33692 17.2752 2.48856 17.6401Z" />
</g>
</svg>
