<svg width="16" height="16" viewBox="0 0 16 16" xmlns="http://www.w3.org/2000/svg">
<path fill-rule="evenodd" clip-rule="evenodd" d="M14.5625 7.67114C14.5625 11.2955 11.6244 14.2336 8 14.2336C4.37563 14.2336 1.4375 11.2955 1.4375 7.67114C1.4375 4.04677 4.37563 1.10864 8 1.10864C11.6244 1.10864 14.5625 4.04677 14.5625 7.67114ZM11.4158 6.7117C11.9454 6.7117 12.3753 7.14153 12.3753 7.67113C12.3753 8.06258 12.1373 8.4003 11.8226 8.55381C11.838 8.64591 11.8457 8.73802 11.8457 8.8378C11.8457 10.3115 10.134 11.5012 8.01561 11.5012C5.89719 11.5012 4.18557 10.3115 4.18557 8.8378C4.18557 8.73802 4.19324 8.63824 4.20859 8.54613C3.87087 8.39262 3.64061 8.06258 3.64061 7.67113C3.64061 7.14153 4.07044 6.7117 4.60004 6.7117C4.85333 6.7117 5.09127 6.81916 5.26013 6.98034C5.92022 6.49679 6.83359 6.19745 7.85443 6.16675L8.33798 3.87947C8.35333 3.83341 8.37636 3.79504 8.41473 3.77201C8.45311 3.74898 8.49916 3.74131 8.54522 3.74898L10.134 4.0867C10.2415 3.85644 10.4718 3.70293 10.7404 3.70293C11.1165 3.70293 11.4235 4.00995 11.4235 4.38604C11.4235 4.76214 11.1165 5.06916 10.7404 5.06916C10.372 5.06916 10.0726 4.77749 10.0573 4.41675L8.63732 4.1174L8.19982 6.16675C9.19763 6.20512 10.1033 6.51214 10.7557 6.98034C10.9246 6.81148 11.1549 6.7117 11.4158 6.7117ZM6.49587 7.67113C6.11978 7.67113 5.81276 7.97815 5.81276 8.35425C5.81276 8.73034 6.11978 9.03736 6.49587 9.03736C6.87197 9.03736 7.17899 8.73034 7.17899 8.35425C7.17899 7.97815 6.87197 7.67113 6.49587 7.67113ZM8.00794 10.6569C8.2689 10.6569 9.15925 10.6262 9.62745 10.158C9.69653 10.0889 9.69653 9.98144 9.6428 9.90469C9.57372 9.83561 9.45859 9.83561 9.38951 9.90469C9.09017 10.1964 8.46846 10.3038 8.01561 10.3038C7.56276 10.3038 6.93337 10.1964 6.64171 9.90469C6.57263 9.83561 6.4575 9.83561 6.38842 9.90469C6.31934 9.97376 6.31934 10.0889 6.38842 10.158C6.84894 10.6185 7.74697 10.6569 8.00794 10.6569ZM8.82153 8.35425C8.82153 8.73034 9.12855 9.03736 9.50465 9.03736C9.88074 9.03736 10.1878 8.73034 10.1878 8.35425C10.1878 7.97815 9.88074 7.67113 9.50465 7.67113C9.12855 7.67113 8.82153 7.97815 8.82153 8.35425Z" />
</svg>
