<svg width="16" height="16" viewBox="0 0 16 16" xmlns="http://www.w3.org/2000/svg">
<path d="M14.7369 9.56024L11.8402 8.00024L14.7369 6.44024C14.8164 6.39742 14.8828 6.3339 14.9291 6.2564C14.9753 6.1789 14.9998 6.09032 14.9998 6.00006C14.9998 5.9098 14.9753 5.82122 14.9291 5.74372C14.8828 5.66623 14.8164 5.6027 14.7369 5.55989L8.23694 2.05989C8.16411 2.02058 8.08265 2 7.99989 2C7.91713 2 7.83567 2.02058 7.76284 2.05989L1.26284 5.55989C1.18338 5.6027 1.11698 5.66623 1.07071 5.74372C1.02443 5.82122 1 5.9098 1 6.00006C1 6.09032 1.02443 6.1789 1.07071 6.2564C1.11698 6.3339 1.18338 6.39742 1.26284 6.44024L4.15954 8.00024L1.26284 9.56024C1.18338 9.60305 1.11698 9.66658 1.07071 9.74407C1.02443 9.82157 1 9.91015 1 10.0004C1 10.0907 1.02443 10.1793 1.07071 10.2568C1.11698 10.3342 1.18338 10.3978 1.26284 10.4406L7.76284 13.9406C7.83568 13.9798 7.91714 14.0004 7.99989 14.0004C8.08264 14.0004 8.16409 13.9798 8.23694 13.9406L14.7369 10.4406C14.8164 10.3978 14.8828 10.3342 14.9291 10.2568C14.9753 10.1793 14.9998 10.0907 14.9998 10.0004C14.9998 9.91015 14.9753 9.82157 14.9291 9.74407C14.8828 9.66658 14.8164 9.60305 14.7369 9.56024ZM7.99989 3.06819L13.4452 6.00024L7.99989 8.93239L2.55459 6.00024L7.99989 3.06819ZM7.99989 12.9324L2.55459 10.0002L5.21424 8.56814L7.76284 9.94024C7.83568 9.97949 7.91714 10 7.99989 10C8.08264 10 8.16409 9.97949 8.23694 9.94024L10.7855 8.56794L13.4452 10.0002L7.99989 12.9324Z"/>
</svg>
