<svg width="24" height="24" viewBox="0 0 24 24" stroke="none" xmlns="http://www.w3.org/2000/svg">
<g>
<g id="g13">
<path id="Exclude" fill-rule="evenodd" clip-rule="evenodd" d="M22.4133 12C22.4133 17.7512 17.751 22.4135 11.9997 22.4135C6.24849 22.4135 1.58618 17.7512 1.58618 12C1.58618 6.24873 6.24849 1.58643 11.9997 1.58643C17.751 1.58643 22.4133 6.24873 22.4133 12ZM12.3732 9.27408C11.3604 9.69537 9.33603 10.5673 6.30027 11.89C5.80731 12.086 5.54908 12.2778 5.52557 12.4653C5.48584 12.7822 5.8827 12.907 6.42314 13.0769C6.49665 13.1001 6.57281 13.124 6.6509 13.1494C7.1826 13.3222 7.89783 13.5244 8.26964 13.5325C8.60692 13.5397 8.98335 13.4007 9.39895 13.1153C12.2354 11.2007 13.6995 10.2329 13.7915 10.212C13.8563 10.1973 13.9462 10.1788 14.0071 10.2329C14.068 10.287 14.062 10.3895 14.0555 10.417C14.0162 10.5846 12.4583 12.033 11.6522 12.7825C11.4008 13.0161 11.2226 13.1819 11.1861 13.2197C11.1045 13.3045 11.0213 13.3847 10.9413 13.4618C10.4474 13.938 10.0769 14.2951 10.9618 14.8782C11.3871 15.1584 11.7274 15.3902 12.0668 15.6213C12.4376 15.8738 12.8074 16.1256 13.2858 16.4393C13.4077 16.5192 13.5241 16.6022 13.6375 16.683C14.0689 16.9906 14.4566 17.2669 14.9354 17.2229C15.2137 17.1972 15.5011 16.9356 15.6471 16.1552C15.9921 14.311 16.6702 10.315 16.8269 8.6684C16.8407 8.52413 16.8234 8.3395 16.8095 8.25845C16.7956 8.1774 16.7667 8.06192 16.6613 7.97644C16.5365 7.8752 16.3439 7.85384 16.2578 7.85529C15.8661 7.86227 15.2652 8.07122 12.3732 9.27408Z"/>
</g>
</g>
</svg>
