<svg width="16" height="16" viewBox="0 0 16 16" xmlns="http://www.w3.org/2000/svg">
<path fill-rule="evenodd" clip-rule="evenodd" d="M14.5084 7.67126C14.5084 11.2658 11.5945 14.1797 7.99993 14.1797C4.4054 14.1797 1.49146 11.2658 1.49146 7.67126C1.49146 4.07672 4.4054 1.16278 7.99993 1.16278C11.5945 1.16278 14.5084 4.07672 14.5084 7.67126ZM8.23337 5.9675C7.60032 6.2308 6.33512 6.77578 4.43777 7.60243C4.12967 7.72495 3.96827 7.84481 3.95358 7.96201C3.92875 8.16008 4.17679 8.23808 4.51456 8.34429C4.56051 8.35873 4.60811 8.3737 4.65691 8.38957C4.98923 8.49759 5.43624 8.62396 5.66863 8.62898C5.87943 8.63354 6.1147 8.54663 6.37445 8.36827C8.1472 7.17161 9.06231 6.56676 9.11976 6.55372C9.16029 6.54452 9.21646 6.53295 9.25452 6.56678C9.29257 6.6006 9.28883 6.66466 9.2848 6.68185C9.26023 6.7866 8.28657 7.69179 7.78271 8.16023C7.62563 8.30627 7.51421 8.40986 7.49143 8.43351C7.44041 8.48651 7.38841 8.53664 7.33843 8.58482C7.0297 8.88243 6.79819 9.10562 7.35125 9.47007C7.61702 9.64521 7.82969 9.79004 8.04186 9.93453C8.27358 10.0923 8.50469 10.2497 8.80372 10.4457C8.8799 10.4957 8.95266 10.5475 9.02353 10.5981C9.29319 10.7903 9.53545 10.963 9.83476 10.9355C10.0087 10.9195 10.1883 10.7559 10.2796 10.2682C10.4952 9.11555 10.919 6.61809 11.0169 5.58895C11.0255 5.49878 11.0147 5.38339 11.006 5.33273C10.9974 5.28207 10.9793 5.2099 10.9134 5.15647C10.8354 5.0932 10.7151 5.07985 10.6612 5.08076C10.4164 5.08511 10.0408 5.21571 8.23337 5.9675Z"/>
</svg>
