<svg width="18" height="14" viewBox="0 0 18 14" stroke="none" xmlns="http://www.w3.org/2000/svg">
<path d="M17.3812 2.7875C17.2816 2.41753 17.0866 2.0802 16.8157 1.80927C16.5448 1.53835 16.2075 1.34334 15.8375 1.24375C14.475 0.875 8.99998 0.875 8.99998 0.875C8.99998 0.875 3.52498 0.875 2.16248 1.24375C1.79251 1.34334 1.45518 1.53835 1.18425 1.80927C0.91333 2.0802 0.718317 2.41753 0.618732 2.7875C0.364323 4.17704 0.240865 5.58739 0.249982 7C0.240865 8.41261 0.364323 9.82296 0.618732 11.2125C0.718317 11.5825 0.91333 11.9198 1.18425 12.1907C1.45518 12.4617 1.79251 12.6567 2.16248 12.7563C3.52498 13.125 8.99998 13.125 8.99998 13.125C8.99998 13.125 14.475 13.125 15.8375 12.7563C16.2075 12.6567 16.5448 12.4617 16.8157 12.1907C17.0866 11.9198 17.2816 11.5825 17.3812 11.2125C17.6356 9.82296 17.7591 8.41261 17.75 7C17.7591 5.58739 17.6356 4.17704 17.3812 2.7875ZM7.24998 9.625V4.375L11.7937 7L7.24998 9.625Z" />
</svg>
