<svg width="838" height="101" viewBox="0 0 838 101" fill="none" xmlns="http://www.w3.org/2000/svg"><g clip-path="url(#a)" fill="#fff"><path d="M290.355 8.78c-.091.3512-.536.54032-.965.66999-5.113-1.39169-10.382-2.11801-15.678-2.16122-24.095 0-40.985 18.25153-58.872 35.78993l-1.959 1.9235c-1.132 1.0806-2.274 2.1612-3.439 3.2796-7.168 6.8889-15.291 14.7018-24.481 16.8198-.175.0455-.356.0673-.537.0648-1.073 0-2.028-.7672-2.028-1.6209.034-.3856.194-.749.454-1.0342.26-.2851.606-.4762.984-.5435 9.588-2.199 17.705-12.7674 27.084-25.0054 10.918-14.2371 23.296-32.05639 39.783-35.60621 4.052-.904558 8.19-1.35933287 12.34-1.35617365 9.979 0 19.454 2.56106365 26.719 7.20229365.212.20008.375.44616.479.71955.103.27338.143.56687.116.85814Zm35.631 34.0393c-3.069-8.1046-9.186-14.7828-17.706-19.3646-7.752-4.1711-17.302-6.4836-26.895-6.4836-6.129-.0599-12.22.9661-17.995 3.0311l-.065.027h-.075c-14.153 4.2522-28.511 16.301-42.385 27.9555-12.946 10.8655-25.168 21.1314-35.947 23.6438-.738.2184-1.383.6788-1.832 1.3081-.449.6294-.677 1.3917-.647 2.1661 0 1.9667 1.417 3.566 3.16 3.566.251.0007.5-.0338.741-.1027 10.945-2.896 23.542-11.9894 33.666-19.2943 3.622-2.6205 6.761-4.8628 9.47-6.6134 12.877-8.8826 32.873-19.451 55.262-19.451 12.007-.0903 23.789 3.2846 33.951 9.7255.073.0437.143.0924.209.1459 2.307 1.7235 4.706 2.8366 6.117 2.8366.155 0 .536 0 .67-.1783.075-.0108.505-.616.322-2.9014l-.021-.0163Zm0 0c-3.069-8.1046-9.186-14.7828-17.706-19.3646-7.752-4.1711-17.302-6.4836-26.895-6.4836-6.129-.0599-12.22.9661-17.995 3.0311l-.065.027h-.075c-14.153 4.2522-28.511 16.301-42.385 27.9555-12.946 10.8655-25.168 21.1314-35.947 23.6438-.738.2184-1.383.6788-1.832 1.3081-.449.6294-.677 1.3917-.647 2.1661 0 1.9667 1.417 3.566 3.16 3.566.251.0007.5-.0338.741-.1027 10.945-2.896 23.542-11.9894 33.666-19.2943 3.622-2.6205 6.761-4.8628 9.47-6.6134 12.877-8.8826 32.873-19.451 55.262-19.451 12.007-.0903 23.789 3.2846 33.951 9.7255.073.0437.143.0924.209.1459 2.307 1.7235 4.706 2.8366 6.117 2.8366.155 0 .536 0 .67-.1783.075-.0108.505-.616.322-2.9014l-.021-.0163Zm4.12 17.8301c-14.067-8.5638-31.655-14.0912-44.762-14.0912h-.263c-.821-.027-1.663-.0378-2.5-.0378-26.177 0-50.181 13.9129-73.391 27.3666l-1.003.5781c-6.943 3.9983-14.991 8.3964-22.609 10.0119-.919.2302-1.732.7701-2.304 1.5298-.572.7598-.868 1.6938-.84 2.6468-.009 1.1054.384 2.1758 1.105 3.0095.321.3791.719.6851 1.167.8975.447.2124.935.3263 1.43.3344.156-.0001.312-.0109.467-.0325 10.558-1.4912 21.122-6.3215 32.314-11.4383 15.962-7.3049 34.059-15.577 55.949-15.577 25.254 0 51.656 11.0439 80.725 33.7692.249.1919.546.3098.858.3404.601 0 1.385-1.2265 1.551-2.8799-1.867-18.0354-18.274-30.5489-27.894-36.4004v-.0271Zm0 0c-14.067-8.5638-31.655-14.0912-44.762-14.0912h-.263c-.821-.027-1.663-.0378-2.5-.0378-26.177 0-50.181 13.9129-73.391 27.3666l-1.003.5781c-6.943 3.9983-14.991 8.3964-22.609 10.0119-.919.2302-1.732.7701-2.304 1.5298-.572.7598-.868 1.6938-.84 2.6468-.009 1.1054.384 2.1758 1.105 3.0095.321.3791.719.6851 1.167.8975.447.2124.935.3263 1.43.3344.156-.0001.312-.0109.467-.0325 10.558-1.4912 21.122-6.3215 32.314-11.4383 15.962-7.3049 34.059-15.577 55.949-15.577 25.254 0 51.656 11.0439 80.725 33.7692.249.1919.546.3098.858.3404.601 0 1.385-1.2265 1.551-2.8799-1.867-18.0354-18.274-30.5489-27.894-36.4004v-.0271ZM67.6448 8.78c.0912.3512.5365.54032.9657.66999 5.1126-1.39169 10.3813-2.11801 15.6772-2.16122 24.0953 0 40.9853 18.25153 58.8723 35.78993l1.959 1.9235c1.132 1.0806 2.274 2.1612 3.439 3.2796 7.168 6.8889 15.291 14.7018 24.481 16.8198.175.0455.356.0673.537.0648 1.073 0 2.028-.7672 2.028-1.6209-.034-.3856-.194-.749-.454-1.0342-.26-.2851-.606-.4762-.984-.5435-9.588-2.199-17.705-12.7674-27.084-25.0054-10.918-14.2371-23.296-32.05639-39.783-35.60621C103.247.451632 99.1093-.00314287 94.9591.00001635c-9.9793 0-19.4543 2.56106365-26.7188 7.20229365-.2118.20008-.3756.44616-.4788.71955-.1032.27338-.1431.56687-.1167.85814ZM32.2933 45.791c.1234.1621.5365.1783.6706.1783 1.4111 0 3.8094-1.113 6.1164-2.8366.0663-.0535.1362-.1022.2092-.1459 10.1624-6.4409 21.944-9.8158 33.9512-9.7255 22.4159 0 42.4333 10.5738 55.2883 19.451 2.71 1.729 5.848 3.9929 9.47 6.6134 10.124 7.3049 22.722 16.3983 33.667 19.2944.241.0688.49.1034.74.1026 1.744 0 3.16-1.6209 3.16-3.566.03-.7744-.197-1.5367-.646-2.166-.449-.6294-1.094-1.0898-1.832-1.3082-10.779-2.5124-23.001-12.7782-35.947-23.6438-13.886-11.6544-28.243-23.7033-42.3858-27.9555h-.0751l-.0644-.027c-5.7788-2.0663-11.8737-3.0923-18.0056-3.0311-9.5931 0-19.1432 2.2963-26.8959 6.4837-8.5146 4.5818-14.631 11.2762-17.7053 19.3646-.1985 2.2477.2307 2.8528.2844 2.9176Zm0 0c.1234.1621.5365.1783.6706.1783 1.4111 0 3.8094-1.113 6.1164-2.8366.0663-.0535.1362-.1022.2092-.1459 10.1624-6.4409 21.944-9.8158 33.9512-9.7255 22.4159 0 42.4333 10.5738 55.2883 19.451 2.71 1.729 5.848 3.9929 9.47 6.6134 10.124 7.3049 22.722 16.3983 33.667 19.2944.241.0688.49.1034.74.1026 1.744 0 3.16-1.6209 3.16-3.566.03-.7744-.197-1.5367-.646-2.166-.449-.6294-1.094-1.0898-1.832-1.3082-10.779-2.5124-23.001-12.7782-35.947-23.6438-13.886-11.6544-28.243-23.7033-42.3858-27.9555h-.0751l-.0644-.027c-5.7788-2.0663-11.8737-3.0923-18.0056-3.0311-9.5931 0-19.1432 2.2963-26.8959 6.4837-8.5146 4.5818-14.631 11.2762-17.7053 19.3646-.1985 2.2477.2307 2.8528.2844 2.9176ZM0 97.1202C.166322 98.7735.949645 100 1.55055 100c.31209-.0305.60946-.1484.85844-.3404C31.4778 76.9343 57.8801 65.8904 83.1342 65.8904c21.8898 0 39.9868 8.2721 55.9488 15.5771 11.192 5.1167 21.756 9.947 32.314 11.4383.155.0215.311.0323.467.0324.495-.008.983-.122 1.43-.3344.448-.2124.846-.5184 1.167-.8975.721-.8337 1.114-1.9041 1.105-3.0095.028-.953-.268-1.887-.84-2.6468-.572-.7597-1.385-1.2996-2.304-1.5298-7.618-1.6209-15.666-6.0136-22.609-10.0119l-1.003-.5781c-23.21-13.4536-47.214-27.3666-73.391-27.3666-.837 0-1.6793.0001-2.5002.0379h-.2629c-13.118 0-30.6945 5.5273-44.7621 14.0912C18.274 66.528 1.8671 79.0415 0 97.0986v.0216Zm0 0C.166322 98.7735.949645 100 1.55055 100c.31209-.0305.60946-.1484.85844-.3404C31.4778 76.9343 57.8801 65.8904 83.1342 65.8904c21.8898 0 39.9868 8.2721 55.9488 15.5771 11.192 5.1167 21.756 9.947 32.314 11.4383.155.0215.311.0323.467.0324.495-.008.983-.122 1.43-.3344.448-.2124.846-.5184 1.167-.8975.721-.8337 1.114-1.9041 1.105-3.0095.028-.953-.268-1.887-.84-2.6468-.572-.7597-1.385-1.2996-2.304-1.5298-7.618-1.6209-15.666-6.0136-22.609-10.0119l-1.003-.5781c-23.21-13.4536-47.214-27.3666-73.391-27.3666-.837 0-1.6793.0001-2.5002.0379h-.2629c-13.118 0-30.6945 5.5273-44.7621 14.0912C18.274 66.528 1.8671 79.0415 0 97.0986v.0216ZM378.586 46.9977c0-21.2158 12.246-34.2448 31.735-34.2448 19.489 0 31.736 12.9317 31.736 34.2642 0 21.3325-12.247 34.3615-31.736 34.3615s-31.735-13.0484-31.735-34.3809Zm51.984 0c0-15.5959-7.126-24.9689-20.268-24.9689s-20.249 9.373-20.249 24.9689c0 15.5958 6.912 24.8717 20.268 24.8717 13.356 0 20.268-9.3731 20.268-24.8717h-.019ZM450.438 101V29.341h10.279v9.9759c3.758-7.8952 9.697-11.0649 16.998-11.0649 10.961 0 20.169 7.5062 20.169 26.5635s-9.091 26.4663-20.169 26.4663c-7.126 0-13.045-2.8586-16.802-10.4621l.389 7.7979v22.4014h-10.864V101Zm36.272-46.204c0-12.8345-5.335-18.2599-12.246-18.2599-8.002 0-13.24 4.9393-13.24 18.2599 0 13.3207 5.14 18.0655 13.24 18.0655 6.911 0 12.246-5.4254 12.246-18.0655ZM516.769 57.5769c.487 9.7815 5.043 15.3042 13.142 15.3042 6.717 0 10.182-3.0531 11.467-7.9924h10.864c-2.278 10.2676-9.793 16.3931-22.039 16.3931-15.42 0-24.707-9.7814-24.707-26.1551s9.696-26.8552 24.707-26.8552c14.232 0 22.526 8.8869 22.526 24.8717l-.292 4.4532h-35.688l.02-.0195Zm24.707-7.9924c-.584-8.0896-3.758-13.0289-11.565-13.0289-7.807 0-11.857 4.6476-12.947 13.0289h24.512ZM596.522 80.076V48.301c0-6.8062-3.368-11.0649-9.988-11.0649-7.71 0-12.85 5.9311-12.85 15.4014V80.076H562.82V29.341h10.28v10.1703c3.758-8.0896 9.891-11.2593 17.406-11.2593 8.605 0 16.899 4.7448 16.899 16.1014v35.7422h-10.864l-.019-.0196ZM620.047 80.0756V13.8418h22.137c16.218 0 25.096 4.9393 25.096 16.2959 0 7.6035-4.244 13.5346-13.239 15.3042 9.579 1.3807 15.128 7.7007 15.128 15.7903 0 10.1704-7.613 18.8628-23.033 18.8628h-26.089v-.0194Zm20.852-37.9979c8.995 0 15.225-2.5669 15.225-10.5593s-7.223-9.8787-15.712-9.8787h-9.189v20.438h9.676Zm2.862 29.9083c8.8 0 13.94-3.9476 13.94-11.4539 0-7.5062-6.814-10.8509-16.802-10.8509h-9.676V71.986h12.557-.019ZM676.102 54.8155c0-16.7821 9.287-26.5635 24.317-26.5635 15.031 0 24.22 9.7814 24.22 26.5635s-9.287 26.4663-24.22 26.4663c-14.933 0-24.317-9.9759-24.317-26.4663Zm37.362 0c0-11.6483-4.342-18.26-13.045-18.26s-13.142 6.6117-13.142 18.26c0 11.6483 4.439 18.0655 13.142 18.0655s13.045-6.5145 13.045-18.0655ZM731.551 54.8155c0-16.7821 9.287-26.5635 24.318-26.5635 15.03 0 24.22 9.7814 24.22 26.5635s-9.287 26.4663-24.22 26.4663c-14.934 0-24.318-9.9759-24.318-26.4663Zm37.362 0c0-11.6483-4.342-18.26-13.044-18.26-8.703 0-13.142 6.6117-13.142 18.26 0 11.6483 4.439 18.0655 13.142 18.0655 8.702 0 13.044-6.5145 13.044-18.0655ZM822.775 80.0759l-16.219-25.3773-6.911 6.32v19.0573h-10.864V9h10.864v39.4952l21.046-19.1545h13.337l-19.664 17.8711 20.462 32.8835h-12.051v-.0194Z"/></g><defs><clipPath id="a"><rect width="838" height="101" fill="#fff"/></clipPath></defs></svg>